PathFileType	4	(X/Y/Z)	Patient5_TMGait_0pt45_1_right_10.trc.trc
DataRate	CameraRate	NumFrames	NumMarkers	Units	OrigDataRate	OrigDataStartFrame	OrigNumFrames
58.333333333333	58.333333333333	4	32	mm	58.333333333333	71	       141
Frame#	Time	R.ASIS			L.ASIS			Chest			R.Shoulder			Neck			L.Shoulder			L.Elbow			L.Wrist			R.Elbow			R.Wrist			L.Thigh.Superior			L.Thigh.Lateral			L.Thigh.Inferior			L.Patella			L.Shank.Superior			L.Shank.Lateral			L.Shank.Inferior			L.Heel			L.Midfoot.Lateral			L.Midfoot.Superior			L.Toe			R.Thigh.Superior			R.Thigh.Lateral			R.Thigh.Inferior			R.Patella			R.Shank.Superior			R.Shank.Lateral			R.Shank.Inferior			R.Heel			R.Midfoot.Lateral			R.Midfoot.Superior			R.Toe			
		X1	Y1	Z1	X2	Y2	Z2	X3	Y3	Z3	X4	Y4	Z4	X5	Y5	Z5	X6	Y6	Z6	X7	Y7	Z7	X8	Y8	Z8	X9	Y9	Z9	X10	Y10	Z10	X11	Y11	Z11	X12	Y12	Z12	X13	Y13	Z13	X14	Y14	Z14	X15	Y15	Z15	X16	Y16	Z16	X17	Y17	Z17	X18	Y18	Z18	X19	Y19	Z19	X20	Y20	Z20	X21	Y21	Z21	X22	Y22	Z22	X23	Y23	Z23	X24	Y24	Z24	X25	Y25	Z25	X26	Y26	Z26	X27	Y27	Z27	X28	Y28	Z28	X29	Y29	Z29	X30	Y30	Z30	X31	Y31	Z31	X32	Y32	Z32	

71	17.520000000000	930.986119051573	972.147204002381	573.690259620555	951.968505405769	955.559346254034	331.562479952739	1030.983217026273	1426.709501215913	457.284657046407	919.998501926291	1496.946947796285	614.079055323362	913.174527467089	1554.782741307098	427.498826065173	990.701008893014	1492.839669889372	254.521996852658	919.952243730451	1173.997159869550	126.508888883910	1017.910162275464	903.571602993346	164.780748768821	819.733678983671	1184.641836311844	757.012403984539	1037.195282744133	995.902917694407	716.368976970310	1008.455984053974	758.105873847949	321.399431459604	956.752625820185	673.871103266624	278.374230015149	1036.304184810115	635.447648146698	350.667090668300	1062.055181455398	519.474189944692	361.194783099397	1023.244963827488	408.344202191419	374.666142359358	972.212545838536	335.390781066642	288.131233378365	1000.700901489887	282.657063619018	377.957904479393	887.518589998981	49.860213897431	370.812533730986	977.169373004094	27.004576744331	311.007152944131	1072.550095900668	90.266680622802	358.358188198129	1179.752919698512	49.114476179291	364.299744298236	910.687776849540	736.246169874072	589.769773914019	806.650046217298	674.079859268479	637.904166675530	882.889251420361	606.211070317042	573.997474441962	863.242127618105	508.233597235833	604.274715512398	797.578048217880	416.496098027866	563.121997430859	704.944399046389	372.263726853896	638.171799639342	746.037433955947	286.974248286729	563.402233875830	572.500433723260	85.257209884505	527.119219281996	642.437087696264	42.775730577868	602.231688305558	756.409702717433	90.993473684419	587.188615818596	850.772886554738	42.099286271201	588.717782996808	
72	17.537142857143	930.618792643253	975.034978752431	569.544856836681	953.755395473282	956.609920072408	328.010005880532	1031.389794829980	1428.662464885922	454.315785897449	918.250614827317	1498.749509241675	609.563747020662	913.870612443235	1556.635078706020	422.944243229106	993.877823558654	1494.867127013543	251.085362344917	925.255095418352	1175.929879389762	122.094949506311	1024.674754087473	906.236568063289	161.496537349168	815.929349976167	1186.286294871862	750.798202578833	1033.963089323810	997.755216384910	712.137156789860	1008.082212992324	757.380047959713	317.772180384191	955.108924034263	673.584027536664	275.052391322141	1033.896908962860	634.524113599532	347.709601864461	1058.191816910389	518.543296845783	358.879122912792	1018.468396557083	407.931017390111	372.782240478535	967.062760653423	334.909060308469	286.447860877663	994.850473079622	282.489388881266	376.718662586322	880.134268723137	49.802875562471	370.550265892490	969.766973906145	26.941755256550	310.779928409333	1065.137948457901	90.278153716643	358.109624519600	1172.414600145142	48.992568395015	364.109754185659	913.704212966178	739.369778224820	588.337474201828	810.622764391606	676.193666497918	636.572445937163	888.756813451884	608.689799691876	574.398314632835	869.924849526161	509.938578896646	605.691335915970	801.727202179785	417.612185166828	564.239492871250	707.536408273935	375.591139730880	638.960629131876	746.595064116224	289.309777259271	564.347482724394	567.869436627508	93.517636987970	527.835863561034	636.263544333558	47.765975743095	602.471529034225	751.838506675496	92.134624197411	588.226800317518	843.905747009653	41.849789753866	588.827298281739	
73	17.554285714286	929.996826093817	977.940345205393	565.263157467300	955.138958839379	957.519189105362	324.611485514677	1031.551462050677	1430.333259466368	451.398832659899	916.316358148080	1500.297437297115	605.022205078417	914.424884457870	1558.296214686912	418.409441018966	997.070022138737	1496.726258754798	247.789574472290	930.852098383773	1177.785161788770	117.568808152288	1031.510433311994	908.760398629262	158.206918065360	812.545369146349	1187.674896647771	744.851624639029	1030.871238790367	999.179897654868	707.782159904741	1007.255665308493	756.725976932092	314.783520242480	953.262588120301	673.379616659720	271.956564286129	1031.071330307444	633.595713190514	345.136303195543	1053.856773682505	517.564742659034	356.709377998162	1013.305703811846	407.503603644849	370.976879402727	961.629473787387	334.383791106027	284.811746233578	988.754978860521	282.298051390899	375.525617789951	872.705071216383	49.785666467122	370.307569307740	962.333282527903	26.854415857303	310.609058250433	1057.709456474613	90.220445023452	357.938210204164	1165.046008381263	48.785338203988	364.044885470277	917.135513450896	742.667131355169	587.496302502266	815.335165698398	678.162547522819	635.676531201548	895.501757911110	611.244540477991	575.261461865122	877.669870188781	511.663232915959	607.574902229323	806.856654441551	418.832540290871	565.795556090096	711.191635252723	379.052801572431	640.272118940664	747.968939098524	291.903824636930	565.625641611490	563.881665935053	102.721044262819	528.789681391328	630.498129938162	53.523724489639	602.864915726528	747.682463332536	93.687993121032	589.389573872877	837.314350739813	41.626319316724	589.059598742309	
74	17.571428571429	929.145799608757	980.794036382145	560.980436555980	956.156631251129	958.321845742775	321.357819804752	1031.430835575994	1431.748492970937	448.509219437929	914.182554507653	1501.639206527747	600.465141862010	914.792161390447	1559.769000848678	413.897113008799	1000.140403942162	1498.377175814437	244.617248807824	936.761278947643	1179.495962080284	112.962000856670	1038.384010684673	911.056287447254	154.955268121421	809.430923655225	1188.818506619941	739.073518433313	1027.882670415140	1000.256986883036	703.386726053961	1006.075229764930	756.181465915160	312.320833208687	951.294365858921	673.303417733959	269.074569724764	1027.986922934736	632.713437135799	342.855622645683	1049.221331690284	516.575348234434	354.625861593254	1007.902208751376	407.069100837665	369.210612056264	955.979424314698	333.855755678039	283.200204744052	982.494677498794	282.093932165719	374.344293560812	865.193797235655	49.805218164129	370.072366219972	954.822575772712	26.756381715558	310.459881201423	1050.227695459987	90.108304557778	357.797788737580	1157.606363383587	48.499611788300	364.043368655045	920.872296698991	746.114437947703	587.219992376517	820.685638314013	680.034674611694	635.200124939532	902.938592268044	613.899192350435	576.494065352003	886.246048722203	513.463539299504	609.795177185529	812.844299842140	420.235547616808	567.693834486484	715.807557805903	382.716151386172	642.019324616580	750.117844364343	294.839504707173	567.165286459653	560.640384809989	112.875838581209	529.912492237602	625.203032254554	60.121112974350	603.371084356627	743.953176218603	95.762106801220	590.641758599823	831.027469236448	41.413066809566	589.444536143114	
